# xmcd CD database file
#
# Track frame offsets:
#	150
#	5069
#	30738
#	49403
#	70413
#	78946
#	102975
#	111508
#	137640
#	144777
#	160752
#	176898
#	192841
#	213322
#	226462
#	245463
#	256956
#	282344
#	292730
#	313047
#	330320
#	341166
#
# Disc length: 4764 seconds
#
# Revision: 0
# Processed by: cddbd v1.5.1PL2 Copyright (c) Steve Scherf et al.
# Submitted via: Feurio! 1.68 - http://www.feurio.com
#
DISCID=45129a16
DTITLE=Pappo's Blues - El Auto Rojo  CD 2
DYEAR=1900
DGENRE=
TTITLE0=Trabajando En El Ferrocarril
TTITLE1=Blues Slide
TTITLE2=Blues Del Perro
TTITLE3=Dos Bajistas
TTITLE4=Fiesta Cervezal
TTITLE5=Desconfio
TTITLE6=Tom  Demasiado
TTITLE7=Botella Rock
TTITLE8=Pappo's Stratocaster Boogie
TTITLE9=Cabaret
TTITLE10=Penetieso Blues
TTITLE11=Llegar  La Paz
TTITLE12=Blues De Santa Fe
TTITLE13=No Sé Inglés
TTITLE14=Yenny
TTITLE15=Mi Vieja
TTITLE16=Sisy Cadillac
TTITLE17=Hombre Suburbano
TTITLE18=Dr.Tazo
TTITLE19=Rock And Roll Y Fiebre
TTITLE20=Descort's
TTITLE21=Katmandu
EXTD=
EXTT0=
EXTT1=
EXTT2=
EXTT3=
EXTT4=
EXTT5=
EXTT6=
EXTT7=
EXTT8=
EXTT9=
EXTT10=
EXTT11=
EXTT12=
EXTT13=
EXTT14=
EXTT15=
EXTT16=
EXTT17=
EXTT18=
EXTT19=
EXTT20=
EXTT21=
PLAYORDER=
